<?xml version="1.0" encoding="UTF-8"?>
<svg id="a" data-name="Layer 1" xmlns="http://www.w3.org/2000/svg" xmlns:xlink="http://www.w3.org/1999/xlink" viewBox="0 0 112.6 112.6">
  <defs>
    <linearGradient id="b" x1="106.9" y1="107" x2="11.6" y2="11.6" gradientUnits="userSpaceOnUse">
      <stop offset="0" stop-color="#f24e08"/>
      <stop offset=".4" stop-color="#f8782d"/>
      <stop offset=".8" stop-color="#fd9345"/>
      <stop offset="1" stop-color="#ff9e4f"/>
    </linearGradient>
  </defs>
  <circle cx="39.3" cy="39.3" r="36.3" fill="#ffe4d3"/>
  <path d="m48.5,21.2s-.3.2-1.1-.1-.9-.7-.9-.7c0,0,1-.6,1.6-2.3s.4-2.9.4-2.9c0,0,.5,0,1.1.2s.9.6.9.6c0,0,.5.5-.6,3s-1.4,2.2-1.4,2.2Z" fill="#512002"/>
  <path d="m48.4,20.3c10.4,4.3,14.8,18.9,9.1,30.1-5.7,11.2-20.3,16.4-29.7,10.6-12.1-7.5,7.7-46.1,20.6-40.7Z" fill="#f24f09"/>
  <ellipse cx="37.5" cy="40.3" rx="22.8" ry="17.8" transform="translate(-15.4 55.6) rotate(-63.1)" fill="#ff9e4f"/>
  <circle cx="37.5" cy="40.3" r="6.8" fill="#ffe4d3"/>
  <path d="m53.2,23.3s.3-2.2-4-4.5-6.4-.2-6.4-.2c0,0,.2,2.3,4.3,4.3s6.1.4,6.1.4Z" fill="#512002"/>
  <path d="m41.8,0c2.6.5,5.3.7,7.9,1.4,6.8,1.7,12.7,5.2,17.7,10.2,6.1,6.1,9.8,13.4,11,22,1.4,10.2-.7,19.6-6.5,28.1-.3.4-.6.8-.8,1.2,2.1,2.1,4.1,4.1,6.2,6.2.1,0,.4-.2.6-.3,2.2-1.6,4.9-1.5,7,.2.3.2.6.5.8.7,8.3,8.3,16.6,16.6,24.9,24.9,2.2,2.2,2.7,4.9,1.3,7.3-.3.6-.8,1.1-1.2,1.5-2.4,2.4-4.8,4.8-7.1,7.2-2.8,2.7-6,2.7-8.8,0-8.1-8.1-16.3-16.3-24.4-24.4-3.1-3.1-3.4-5.2-1.2-8.8-2-2.1-4.1-4.1-6.1-6.2-1.4.8-2.8,1.8-4.3,2.7-6.8,3.8-14.1,5.5-21.9,4.9-13.5-1.1-23.9-7.5-31-19.1C2.4,54.4.7,48.7.2,42.6.1,42.3,0,42.1,0,41.8,0,40.2,0,38.7,0,37.2c.3-1.8.4-3.7.8-5.5,1.5-7.6,5-14.2,10.4-19.7C16.1,6.9,22,3.3,28.8,1.5,31.5.8,34.4.5,37.2,0c1.5,0,3.1,0,4.6,0ZM11.2,40.1c0,.7.2,2.1.4,3.5,1.8,12.2,11.2,21.6,23.3,23.5,11.6,1.8,20.6-2.8,27.5-11.7,4.9-6.3,6.1-13.8,4.6-21.6-2.9-15-17.9-25-33-22.1-13.2,2.6-22.9,14.3-22.8,28.3Z" fill="url(#b)"/>
</svg>